# xmcd
#
# Track frame offsets: 
#        150
#        21112
#        49860
#        69417
#        90867
#        108705
#        127755
#        153385
#        176517
#        191642
#
# Disc length: 2865 seconds
#
# Revision: 5
# Processed by: cddbd v1.5.2PL0 Copyright (c) Steve Scherf et al.
# Submitted via: ExactAudioCopy v1.3
#
DISCID=780b2f0a
DTITLE=孟庭葦 - 你看你看月亮的臉 [WCD-2029B]
DYEAR=1991
DGENRE=Pop
TTITLE0=你看你看月亮的臉
TTITLE1=紅雨
TTITLE2=不讓你看到我的淚
TTITLE3=走出愛情
TTITLE4=一個人的傷心
TTITLE5=紫浣花
TTITLE6=一個愛上浪漫的人
TTITLE7=誰讓我生命中只能有你
TTITLE8=心疼的最愛
TTITLE9=不再
EXTD=
EXTT0=
EXTT1=
EXTT2=
EXTT3=
EXTT4=
EXTT5=
EXTT6=
EXTT7=
EXTT8=
EXTT9=
PLAYORDER=
